<?xml version="1.0" encoding="UTF-8"?>
<svg xmlns="http://www.w3.org/2000/svg" xmlns:xlink="http://www.w3.org/1999/xlink" width="128pt" height="128pt" viewBox="0 0 128 128" version="1.1">
<g id="surface1">
<path style=" stroke:none;fill-rule:nonzero;fill:rgb(0%,0%,0%);fill-opacity:1;" d="M 64 64 C 58.132812 64 53.332031 59.199219 53.332031 53.332031 C 53.332031 47.464844 58.132812 42.667969 64 42.667969 C 69.867188 42.667969 74.667969 47.464844 74.667969 53.332031 C 74.667969 59.199219 69.867188 64 64 64 Z M 96 54.398438 C 96 35.039062 81.867188 21.332031 64 21.332031 C 46.132812 21.332031 32 35.039062 32 54.398438 C 32 66.878906 42.398438 83.414062 64 103.148438 C 85.601562 83.414062 96 66.878906 96 54.398438 Z M 64 10.667969 C 86.398438 10.667969 106.667969 27.839844 106.667969 54.398438 C 106.667969 72.105469 92.425781 93.066406 64 117.332031 C 35.574219 93.066406 21.332031 72.105469 21.332031 54.398438 C 21.332031 27.839844 41.601562 10.667969 64 10.667969 Z M 64 10.667969 "/>
</g>
</svg>
