<?xml version="1.0" encoding="UTF-8"?>
<svg xmlns="http://www.w3.org/2000/svg" xmlns:xlink="http://www.w3.org/1999/xlink" width="36pt" height="36pt" viewBox="0 0 36 36" version="1.1">
<g id="surface1">
<path style=" stroke:none;fill-rule:nonzero;fill:rgb(0%,0%,0%);fill-opacity:1;" d="M 18 3 C 12.195312 3 7.5 7.695312 7.5 13.5 C 7.5 21.375 18 33 18 33 C 18 33 28.5 21.375 28.5 13.5 C 28.5 7.695312 23.804688 3 18 3 Z M 10.5 13.5 C 10.5 9.359375 13.859375 6 18 6 C 22.140625 6 25.5 9.359375 25.5 13.5 C 25.5 17.820312 21.179688 24.285156 18 28.320312 C 14.878906 24.316406 10.5 17.773438 10.5 13.5 Z M 10.5 13.5 "/>
<path style=" stroke:none;fill-rule:nonzero;fill:rgb(0%,0%,0%);fill-opacity:1;" d="M 21.75 13.5 C 21.75 15.570312 20.070312 17.25 18 17.25 C 15.929688 17.25 14.25 15.570312 14.25 13.5 C 14.25 11.429688 15.929688 9.75 18 9.75 C 20.070312 9.75 21.75 11.429688 21.75 13.5 Z M 21.75 13.5 "/>
</g>
</svg>
