<?xml version="1.0" encoding="UTF-8"?>
<!-- Generator: Adobe Illustrator 25.2.3, SVG Export Plug-In . SVG Version: 6.00 Build 0)  -->
<svg version="1.1" id="Layer_1" xmlns="http://www.w3.org/2000/svg" xmlns:xlink="http://www.w3.org/1999/xlink" x="0px" y="0px" viewBox="0 0 841.89 595.28" style="enable-background:new 0 0 841.89 595.28;" xml:space="preserve">
<style type="text/css">
	.st0{fill:none;}
	.st1{fill:#FFCC00;}
	.st2{fill:#3C3C3B;}
	.st3{fill:#FFFFFF;}
</style>
<rect class="st0" width="841.89" height="595.28"/>
<path class="st1" d="M272.22,405.77h-64.1c-8.16,0-15.98-3.24-21.75-9.01l-45.32-45.32c-5.77-5.77-9.01-13.59-9.01-21.75v-64.1  c0-8.16,3.24-15.98,9.01-21.75l45.32-45.32c5.77-5.77,13.59-9.01,21.75-9.01h64.1c8.16,0,15.98,3.24,21.75,9.01l45.32,45.32  c5.77,5.77,9.01,13.59,9.01,21.75v64.1c0,8.16-3.24,15.98-9.01,21.75l-45.32,45.32C288.2,402.53,280.37,405.77,272.22,405.77z"/>
<path class="st2" d="M277.83,238.65v15.33h-8.5v-15.33h-13.78v15.33h-8.5v-15.33h-13.77v15.33h-8.5v-15.33H211v15.33h-8.5v-15.33  h-13.78v15.33v1.6V319l0.01,0.41c2.36,32.47,27.18,47,50.74,47c24.75,0,51.43-16.66,52.12-47.66v-63.17v-1.6v-15.33H277.83z"/>
<g>
	<path class="st3" d="M251.51,296.86c0-0.88-0.74-1.6-1.63-1.6c-0.89,0-1.63,0.72-1.63,1.6c0,0.88,0.73,1.59,1.63,1.59   C250.77,298.44,251.51,297.73,251.51,296.86z"/>
	<path class="st3" d="M224.41,309.34c0,0-3.1,17.69-3.54,22.13c-0.22,8.37,7.75,11.69,11.93,9.88c15.46-6.78,0.15,14.48-1.7,24.43   c2.79,0.41,5.59,0.62,8.38,0.62c11.42,0,23.24-3.55,32.74-10.41l-1.91-29.2c-0.37-4.75-2.66-7.33-5.83-9.34l-0.37-11.08   c0,0.01,0.02,0.03,0.02,0.03l0.76,1.14l1.05-0.87c3.11-2.6,4.82-5.7,5.03-9.22c0.25-4.18-1.68-8.72-5.42-12.8   c0.01-0.04,0.02-0.09,0.03-0.13c0.11-0.5,0.35-1.53-0.47-2.28l-0.25-0.19c-0.24-0.12-0.51-0.19-0.79-0.19   c-0.59,0-1.07,0.28-1.45,0.5c-0.07,0.03-0.14,0.09-0.21,0.12c-1.67-0.55-3.35-0.83-4.99-0.83c-3.21,0-7.73,1.07-11.63,5.9h-0.05   v0.06c-0.31,0.38-0.62,0.79-0.92,1.23l-0.88,1.27l1.44,0.56c0.03,0.01,0.05,0.02,0.08,0.03l-0.38,4.11l-5.15,5.17   c-1.09,1.28-1.17,3.9,0.28,5.13l0.27,0.17c0.23,0.11,0.16,0.55,0.16,0.55l-0.28,1.27c-18.1-1.41-20.44-13.14-10.12-18.66   l-9.11-9.85C209.68,284.53,207.19,303.34,224.41,309.34z M262.01,317.65l-11.62,0.77l-0.45-4.37l0.6-0.54   c4.52-1.38,8.21-3.87,11.1-7.51L262.01,317.65z M241.71,301.63l5.72-5.71l0.39-4.18c5.06,2.42,9.54,6.02,13.38,10.71   c-1.84,2.91-4.07,5.12-6.77,6.72c-0.05,0.03-0.09,0.06-0.13,0.08c-0.63,0.37-1.29,0.71-1.98,1.01c-0.07,0.03-0.15,0.06-0.23,0.1   c-0.67,0.28-1.37,0.55-2.09,0.77c-0.09,0.02-0.19,0.06-0.28,0.08c-0.73,0.21-1.49,0.4-2.28,0.56c-0.08,0.01-0.16,0.02-0.24,0.05   c-0.82,0.14-1.66,0.28-2.56,0.36c-2.36-0.01-2.61-0.49-2.65-1.26l0.72-3.18c0.11-0.1,0.13-0.2,0.13-0.21   c0.15-0.15,0.28-0.32,0.37-0.51c0.11-0.2,0.18-0.43,0.21-0.66c0.13-1.05-0.41-2.49-1.7-3.2   C241.46,302.82,241.51,301.87,241.71,301.63z M233.31,311.05c1.94,0.15,4.02,0.17,6.26,0.06c0.23,3.5,3.77,3.52,5.13,3.52h0.06   l0.06-0.01c0.93-0.09,1.83-0.23,2.7-0.4l0.58,4.9C231.96,334.89,233.31,311.05,233.31,311.05z"/>
</g>
<g>
	<g>
		<path class="st2" d="M403.89,266.17v-2.47l3.36-0.82v-22.36l-3.36-0.82v-2.47h9.47l7.74,24.25l7.88-24.25h9.58v2.47l-3.33,0.82    v22.36l3.33,0.82v2.47h-10.65v-2.47l3.36-0.82v-22.97l-8.74,26.25h-3.47l-8.51-26.07v22.78l3.33,0.82v2.47H403.89z"/>
		<path class="st2" d="M445.82,240.52l-3.33-0.82v-2.47h10.59v2.47l-3.29,0.82v14.08c0,3.36,0.54,5.71,1.63,7.07    c1.09,1.35,2.9,2.03,5.43,2.03c2.5,0,4.27-0.66,5.29-1.97c1.03-1.31,1.54-3.77,1.54-7.36v-13.85l-3.29-0.82v-2.47h9.93v2.47    l-3.31,0.82v13.71c0,2.35-0.09,4.08-0.27,5.19c-0.18,1.11-0.49,2.04-0.92,2.79c-0.87,1.51-2.09,2.64-3.65,3.4    c-1.56,0.76-3.45,1.14-5.65,1.14c-2.15,0-4-0.33-5.56-0.99c-1.56-0.66-2.78-1.62-3.65-2.88c-0.54-0.79-0.93-1.73-1.15-2.8    c-0.23-1.07-0.34-2.83-0.34-5.27V240.52z"/>
		<path class="st2" d="M474.45,266.17v-2.47l3.31-0.82v-22.36l-3.31-0.82v-2.47h7.74l13.43,22.73v-19.45l-3.31-0.82v-2.47h9.93v2.47    l-3.29,0.82v25.65h-3.59l-14.27-23.78v20.5l3.29,0.82v2.47H474.45z"/>
		<path class="st2" d="M509.66,240.52l-3.31-0.82v-2.47h10.61v2.47l-3.29,0.82v22.36l3.29,0.82v2.47h-10.61v-2.47l3.31-0.82V240.52z    "/>
		<path class="st2" d="M544.55,265.17c-1.55,0.54-3.01,0.94-4.37,1.2c-1.36,0.26-2.72,0.38-4.07,0.38c-4.21,0-7.58-1.3-10.11-3.89    c-2.53-2.6-3.79-6.06-3.79-10.4c0-4.76,1.4-8.59,4.2-11.49c2.8-2.91,6.47-4.36,11.03-4.36c1.2,0,2.37,0.14,3.52,0.41    c1.15,0.27,2.35,0.7,3.59,1.27v5.11h-3.01l-1.33-3.64c-0.28,0-0.66-0.02-1.14-0.05c-0.48-0.03-0.78-0.05-0.91-0.05    c-3.61,0-6.44,1.07-8.51,3.21c-2.07,2.14-3.1,5.08-3.1,8.83c0,3.72,1.01,6.56,3.03,8.54c2.02,1.98,4.93,2.97,8.72,2.97    c0.92,0,1.89-0.06,2.93-0.17c1.03-0.12,2.14-0.3,3.32-0.55V265.17z"/>
		<path class="st2" d="M552.29,240.52l-3.31-0.82v-2.47h10.61v2.47l-3.29,0.82v22.36l3.29,0.82v2.47h-10.61v-2.47l3.31-0.82V240.52z     M550.24,232.94l4.78-6.51l3.29,1.87l-5.92,5.74L550.24,232.94z"/>
		<path class="st2" d="M564.4,237.23h8.93c1.68,0,2.96,0.03,3.84,0.09c0.88,0.06,1.62,0.17,2.23,0.33c1.76,0.47,3.13,1.39,4.11,2.77    c0.99,1.38,1.48,3.09,1.48,5.11c0,3.03-0.97,5.3-2.9,6.81c-1.93,1.51-4.84,2.26-8.71,2.26h-1.66v8.28l3.29,0.82v2.47H564.4v-2.47    l3.31-0.82v-22.36l-3.31-0.82V237.23z M571.72,240.06v11.7h1.96c2.29,0,4-0.5,5.15-1.52c1.15-1.01,1.72-2.53,1.72-4.57    c0-1.97-0.52-3.4-1.55-4.29c-1.03-0.89-2.75-1.33-5.14-1.33H571.72z"/>
		<path class="st2" d="M592.36,240.52l-3.31-0.82v-2.47h10.61v2.47l-3.29,0.82v22.36l3.29,0.82v2.47h-10.61v-2.47l3.31-0.82V240.52z    "/>
		<path class="st2" d="M630.6,250.73c0,4.83-1.21,8.71-3.61,11.63c-2.41,2.92-5.6,4.38-9.58,4.38c-3.75,0-6.76-1.28-9.03-3.85    c-2.28-2.56-3.42-5.98-3.42-10.26c0-4.82,1.2-8.69,3.61-11.61c2.41-2.92,5.6-4.38,9.56-4.38c3.76,0,6.78,1.28,9.06,3.85    C629.46,243.06,630.6,246.48,630.6,250.73z M617.54,263.54c2.69,0,4.78-1.03,6.27-3.1c1.49-2.07,2.24-4.98,2.24-8.74    c0-3.81-0.7-6.73-2.09-8.77c-1.39-2.04-3.38-3.05-5.98-3.05c-2.7,0-4.8,1.03-6.28,3.09c-1.48,2.06-2.23,4.97-2.23,8.73    c0,3.82,0.69,6.75,2.09,8.79C612.95,262.52,614.94,263.54,617.54,263.54z"/>
		<path class="st2" d="M657.42,237.23c3.11,0,5.4,0.08,6.87,0.24c1.47,0.16,2.7,0.43,3.7,0.8c2.46,0.96,4.36,2.57,5.71,4.81    c1.35,2.25,2.03,4.94,2.03,8.08c0,2.61-0.47,4.96-1.4,7.05c-0.93,2.09-2.29,3.8-4.06,5.12c-1.35,1.03-2.9,1.75-4.64,2.18    c-1.74,0.43-4.34,0.64-7.81,0.64h-8.23v-2.47l3.31-0.82v-22.36l-3.31-0.82v-2.47H657.42z M656.9,263.3h3.33    c3.48,0,6.17-1.03,8.08-3.08c1.9-2.05,2.86-4.96,2.86-8.72c0-3.9-0.93-6.78-2.77-8.63c-1.85-1.85-4.71-2.77-8.58-2.77h-2.91V263.3    z"/>
		<path class="st2" d="M680.99,266.17v-2.47l3.31-0.82v-22.36l-3.31-0.82v-2.47h20.12v6.16h-2.54l-1.42-3.29h-8.84v9.84h6.67    l1.21-3.31h2.33v9.07h-2.33l-1.21-3.1h-6.67v10.7h9.16l1.38-3.52h2.54v6.39H680.99z"/>
	</g>
	<path class="st2" d="M455.29,293.81l-6.95-2.15v-6.52h24v6.52l-7.08,2.15l-23.57,67.69h-11.88l-21.91-67.69l-7.08-2.15v-6.52h25.6   v6.52l-6.95,2.15l17.78,58.46L455.29,293.81z"/>
	<path class="st2" d="M486.39,293.81l-8.74-2.15v-6.52h28v6.52l-8.68,2.15v59.02l8.68,2.15v6.52h-28v-6.52l8.74-2.15V293.81z"/>
	<path class="st2" d="M514.36,357.99v-13.35h8.55l3.69,10.34c0.86,0.08,1.69,0.14,2.49,0.18c0.8,0.04,1.63,0.06,2.49,0.06   c5.79,0,10.22-1.02,13.29-3.05c3.08-2.03,4.62-4.93,4.62-8.71c0-2.67-0.88-5.1-2.65-7.29c-1.76-2.19-5.7-5.18-11.82-8.95   c-8.12-5.05-13.35-9.13-15.69-12.25c-2.34-3.12-3.51-6.81-3.51-11.08c0-6.07,2.12-10.99,6.37-14.77c4.25-3.77,9.82-5.66,16.71-5.66   c3,0,6.06,0.37,9.2,1.11c3.14,0.74,6.33,1.85,9.57,3.32v13.48h-8.43l-3.63-9.97c-0.82-0.08-1.6-0.14-2.34-0.18   c-0.74-0.04-1.56-0.06-2.46-0.06c-4.51,0-8.06,0.94-10.65,2.83c-2.58,1.89-3.88,4.47-3.88,7.75c0,2.58,0.89,4.92,2.68,7.02   c1.79,2.09,5.77,4.96,11.97,8.62c7.88,4.76,13.02,8.72,15.42,11.88c2.4,3.16,3.6,6.89,3.6,11.2c0,6.73-2.27,12.18-6.8,16.34   c-4.53,4.17-10.49,6.25-17.88,6.25c-3.78,0-7.43-0.43-10.96-1.29C520.8,360.89,517.48,359.64,514.36,357.99z"/>
	<path class="st2" d="M641.13,293.81l-8.8-2.15v-6.52h27.94v6.52l-8.68,2.15v37.17c0,8.86,1.43,15.08,4.31,18.65   c2.87,3.57,7.65,5.35,14.34,5.35c6.6,0,11.26-1.73,13.97-5.2c2.71-3.47,4.06-9.94,4.06-19.42v-36.55l-8.68-2.15v-6.52h26.22v6.52   l-8.74,2.15v36.19c0,6.19-0.24,10.76-0.71,13.69c-0.47,2.93-1.28,5.39-2.43,7.35c-2.3,3.98-5.51,6.98-9.63,8.98   c-4.12,2.01-9.1,3.02-14.92,3.02c-5.66,0-10.55-0.87-14.68-2.62c-4.12-1.74-7.33-4.28-9.63-7.6c-1.44-2.09-2.45-4.55-3.05-7.38   c-0.6-2.83-0.89-7.47-0.89-13.91V293.81z"/>
	<polygon class="st2" points="616.42,344.64 612.79,353.93 588.61,353.93 588.61,325.69 595.11,325.69 606.21,325.69 615.56,325.69    615.56,318.67 606.21,318.67 595.11,318.67 588.61,318.67 588.61,292.7 611.93,292.7 615.68,301.38 622.39,301.38 622.39,285.13    569.28,285.13 569.28,291.65 578.02,293.81 578.02,352.82 569.28,354.98 569.28,361.5 623.13,361.5 623.13,344.64  "/>
	<g>
		<path class="st2" d="M403.89,266.17v-2.47l3.36-0.82v-22.36l-3.36-0.82v-2.47h9.47l7.74,24.25l7.88-24.25h9.58v2.47l-3.33,0.82    v22.36l3.33,0.82v2.47h-10.65v-2.47l3.36-0.82v-22.97l-8.74,26.25h-3.47l-8.51-26.07v22.78l3.33,0.82v2.47H403.89z"/>
		<path class="st2" d="M445.82,240.52l-3.33-0.82v-2.47h10.59v2.47l-3.29,0.82v14.08c0,3.36,0.54,5.71,1.63,7.07    c1.09,1.35,2.9,2.03,5.43,2.03c2.5,0,4.27-0.66,5.29-1.97c1.03-1.31,1.54-3.77,1.54-7.36v-13.85l-3.29-0.82v-2.47h9.93v2.47    l-3.31,0.82v13.71c0,2.35-0.09,4.08-0.27,5.19c-0.18,1.11-0.49,2.04-0.92,2.79c-0.87,1.51-2.09,2.64-3.65,3.4    c-1.56,0.76-3.45,1.14-5.65,1.14c-2.15,0-4-0.33-5.56-0.99c-1.56-0.66-2.78-1.62-3.65-2.88c-0.54-0.79-0.93-1.73-1.15-2.8    c-0.23-1.07-0.34-2.83-0.34-5.27V240.52z"/>
		<path class="st2" d="M474.45,266.17v-2.47l3.31-0.82v-22.36l-3.31-0.82v-2.47h7.74l13.43,22.73v-19.45l-3.31-0.82v-2.47h9.93v2.47    l-3.29,0.82v25.65h-3.59l-14.27-23.78v20.5l3.29,0.82v2.47H474.45z"/>
		<path class="st2" d="M509.66,240.52l-3.31-0.82v-2.47h10.61v2.47l-3.29,0.82v22.36l3.29,0.82v2.47h-10.61v-2.47l3.31-0.82V240.52z    "/>
		<path class="st2" d="M544.55,265.17c-1.55,0.54-3.01,0.94-4.37,1.2c-1.36,0.26-2.72,0.38-4.07,0.38c-4.21,0-7.58-1.3-10.11-3.89    c-2.53-2.6-3.79-6.06-3.79-10.4c0-4.76,1.4-8.59,4.2-11.49c2.8-2.91,6.47-4.36,11.03-4.36c1.2,0,2.37,0.14,3.52,0.41    c1.15,0.27,2.35,0.7,3.59,1.27v5.11h-3.01l-1.33-3.64c-0.28,0-0.66-0.02-1.14-0.05c-0.48-0.03-0.78-0.05-0.91-0.05    c-3.61,0-6.44,1.07-8.51,3.21c-2.07,2.14-3.1,5.08-3.1,8.83c0,3.72,1.01,6.56,3.03,8.54c2.02,1.98,4.93,2.97,8.72,2.97    c0.92,0,1.89-0.06,2.93-0.17c1.03-0.12,2.14-0.3,3.32-0.55V265.17z"/>
		<path class="st2" d="M552.29,240.52l-3.31-0.82v-2.47h10.61v2.47l-3.29,0.82v22.36l3.29,0.82v2.47h-10.61v-2.47l3.31-0.82V240.52z     M550.24,232.94l4.78-6.51l3.29,1.87l-5.92,5.74L550.24,232.94z"/>
		<path class="st2" d="M564.4,237.23h8.93c1.68,0,2.96,0.03,3.84,0.09c0.88,0.06,1.62,0.17,2.23,0.33c1.76,0.47,3.13,1.39,4.11,2.77    c0.99,1.38,1.48,3.09,1.48,5.11c0,3.03-0.97,5.3-2.9,6.81c-1.93,1.51-4.84,2.26-8.71,2.26h-1.66v8.28l3.29,0.82v2.47H564.4v-2.47    l3.31-0.82v-22.36l-3.31-0.82V237.23z M571.72,240.06v11.7h1.96c2.29,0,4-0.5,5.15-1.52c1.15-1.01,1.72-2.53,1.72-4.57    c0-1.97-0.52-3.4-1.55-4.29c-1.03-0.89-2.75-1.33-5.14-1.33H571.72z"/>
		<path class="st2" d="M592.36,240.52l-3.31-0.82v-2.47h10.61v2.47l-3.29,0.82v22.36l3.29,0.82v2.47h-10.61v-2.47l3.31-0.82V240.52z    "/>
		<path class="st2" d="M630.6,250.73c0,4.83-1.21,8.71-3.61,11.63c-2.41,2.92-5.6,4.38-9.58,4.38c-3.75,0-6.76-1.28-9.03-3.85    c-2.28-2.56-3.42-5.98-3.42-10.26c0-4.82,1.2-8.69,3.61-11.61c2.41-2.92,5.6-4.38,9.56-4.38c3.76,0,6.78,1.28,9.06,3.85    C629.46,243.06,630.6,246.48,630.6,250.73z M617.54,263.54c2.69,0,4.78-1.03,6.27-3.1c1.49-2.07,2.24-4.98,2.24-8.74    c0-3.81-0.7-6.73-2.09-8.77c-1.39-2.04-3.38-3.05-5.98-3.05c-2.7,0-4.8,1.03-6.28,3.09c-1.48,2.06-2.23,4.97-2.23,8.73    c0,3.82,0.69,6.75,2.09,8.79C612.95,262.52,614.94,263.54,617.54,263.54z"/>
		<path class="st2" d="M657.42,237.23c3.11,0,5.4,0.08,6.87,0.24c1.47,0.16,2.7,0.43,3.7,0.8c2.46,0.96,4.36,2.57,5.71,4.81    c1.35,2.25,2.03,4.94,2.03,8.08c0,2.61-0.47,4.96-1.4,7.05c-0.93,2.09-2.29,3.8-4.06,5.12c-1.35,1.03-2.9,1.75-4.64,2.18    c-1.74,0.43-4.34,0.64-7.81,0.64h-8.23v-2.47l3.31-0.82v-22.36l-3.31-0.82v-2.47H657.42z M656.9,263.3h3.33    c3.48,0,6.17-1.03,8.08-3.08c1.9-2.05,2.86-4.96,2.86-8.72c0-3.9-0.93-6.78-2.77-8.63c-1.85-1.85-4.71-2.77-8.58-2.77h-2.91V263.3    z"/>
		<path class="st2" d="M680.99,266.17v-2.47l3.31-0.82v-22.36l-3.31-0.82v-2.47h20.12v6.16h-2.54l-1.42-3.29h-8.84v9.84h6.67    l1.21-3.31h2.33v9.07h-2.33l-1.21-3.1h-6.67v10.7h9.16l1.38-3.52h2.54v6.39H680.99z"/>
	</g>
	<path class="st2" d="M455.29,293.81l-6.95-2.15v-6.52h24v6.52l-7.08,2.15l-23.57,67.69h-11.88l-21.91-67.69l-7.08-2.15v-6.52h25.6   v6.52l-6.95,2.15l17.78,58.46L455.29,293.81z"/>
	<path class="st2" d="M486.39,293.81l-8.74-2.15v-6.52h28v6.52l-8.68,2.15v59.02l8.68,2.15v6.52h-28v-6.52l8.74-2.15V293.81z"/>
	<path class="st2" d="M514.36,357.99v-13.35h8.55l3.69,10.34c0.86,0.08,1.69,0.14,2.49,0.18c0.8,0.04,1.63,0.06,2.49,0.06   c5.79,0,10.22-1.02,13.29-3.05c3.08-2.03,4.62-4.93,4.62-8.71c0-2.67-0.88-5.1-2.65-7.29c-1.76-2.19-5.7-5.18-11.82-8.95   c-8.12-5.05-13.35-9.13-15.69-12.25c-2.34-3.12-3.51-6.81-3.51-11.08c0-6.07,2.12-10.99,6.37-14.77c4.25-3.77,9.82-5.66,16.71-5.66   c3,0,6.06,0.37,9.2,1.11c3.14,0.74,6.33,1.85,9.57,3.32v13.48h-8.43l-3.63-9.97c-0.82-0.08-1.6-0.14-2.34-0.18   c-0.74-0.04-1.56-0.06-2.46-0.06c-4.51,0-8.06,0.94-10.65,2.83c-2.58,1.89-3.88,4.47-3.88,7.75c0,2.58,0.89,4.92,2.68,7.02   c1.79,2.09,5.77,4.96,11.97,8.62c7.88,4.76,13.02,8.72,15.42,11.88c2.4,3.16,3.6,6.89,3.6,11.2c0,6.73-2.27,12.18-6.8,16.34   c-4.53,4.17-10.49,6.25-17.88,6.25c-3.78,0-7.43-0.43-10.96-1.29C520.8,360.89,517.48,359.64,514.36,357.99z"/>
	<path class="st2" d="M641.13,293.81l-8.8-2.15v-6.52h27.94v6.52l-8.68,2.15v37.17c0,8.86,1.43,15.08,4.31,18.65   c2.87,3.57,7.65,5.35,14.34,5.35c6.6,0,11.26-1.73,13.97-5.2c2.71-3.47,4.06-9.94,4.06-19.42v-36.55l-8.68-2.15v-6.52h26.22v6.52   l-8.74,2.15v36.19c0,6.19-0.24,10.76-0.71,13.69c-0.47,2.93-1.28,5.39-2.43,7.35c-2.3,3.98-5.51,6.98-9.63,8.98   c-4.12,2.01-9.1,3.02-14.92,3.02c-5.66,0-10.55-0.87-14.68-2.62c-4.12-1.74-7.33-4.28-9.63-7.6c-1.44-2.09-2.45-4.55-3.05-7.38   c-0.6-2.83-0.89-7.47-0.89-13.91V293.81z"/>
	<polygon class="st2" points="616.42,344.64 612.79,353.93 588.61,353.93 588.61,325.69 595.11,325.69 606.21,325.69 615.56,325.69    615.56,318.67 606.21,318.67 595.11,318.67 588.61,318.67 588.61,292.7 611.93,292.7 615.68,301.38 622.39,301.38 622.39,285.13    569.28,285.13 569.28,291.65 578.02,293.81 578.02,352.82 569.28,354.98 569.28,361.5 623.13,361.5 623.13,344.64  "/>
</g>
</svg>